<svg xmlns="http://www.w3.org/2000/svg" xmlns:xlink="http://www.w3.org/1999/xlink" viewBox="0 0 190.58 65"><defs><style>.cls-1,.cls-4{fill:#231f20;}.cls-2,.cls-7{fill:#fff;}.cls-3{fill:url(#linear-gradient);}.cls-4,.cls-6,.cls-7{fill-rule:evenodd;}.cls-5{fill:#192b72;}.cls-6{fill:#f89820;}</style><linearGradient id="linear-gradient" x1="33.05" y1="23.48" x2="33.05" y2="59.08" gradientUnits="userSpaceOnUse"><stop offset="0" stop-color="#f99f3a"/><stop offset="1" stop-color="#c66a23"/></linearGradient></defs><title>Asset 1mdpi</title><g id="Layer_2" data-name="Layer 2"><g id="Layer_1_copy" data-name="Layer 1 copy"><rect class="cls-1" width="190.58" height="65" rx="9.53"/><rect class="cls-2" x="6.61" y="6.29" width="52.68" height="52.68" rx="6.67"/><path class="cls-3" d="M59.39,52.41a6.67,6.67,0,0,1-6.66,6.67H13.38a6.67,6.67,0,0,1-6.67-6.67V23.48a163.44,163.44,0,0,0,26.34,1.84,218.86,218.86,0,0,0,26.34-1.84Z"/><path class="cls-1" d="M52.73,59H13.38A6.73,6.73,0,0,1,6.66,52.3V13a6.73,6.73,0,0,1,6.72-6.72H52.73A6.73,6.73,0,0,1,59.45,13V52.3A6.73,6.73,0,0,1,52.73,59ZM13.38,6.34A6.62,6.62,0,0,0,6.77,13V52.3a6.62,6.62,0,0,0,6.61,6.62H52.73a6.63,6.63,0,0,0,6.61-6.62V13a6.63,6.63,0,0,0-6.61-6.62Z"/><path class="cls-4" d="M37.53,20.12a13.86,13.86,0,0,1-8,2.5,14.2,14.2,0,0,1-9.71-3.8c-.2-.19,0-.45.22-.3a19.2,19.2,0,0,0,9.72,2.64,18.88,18.88,0,0,0,7.41-1.55C37.58,19.45,37.88,19.85,37.53,20.12Z"/><path class="cls-4" d="M38.42,19.08c-.28-.37-1.82-.18-2.51-.09-.21,0-.24-.16,0-.3a3.75,3.75,0,0,1,3.48-.33,4,4,0,0,1-1.22,3.36c-.18.15-.34.07-.27-.13C38.11,20.92,38.7,19.44,38.42,19.08Z"/><path class="cls-4" d="M35.85,12.43v-.86a.22.22,0,0,1,.22-.22h3.76a.22.22,0,0,1,.22.22v.73a1.2,1.2,0,0,1-.28.55l-2,2.85a4.12,4.12,0,0,1,2.14.48.38.38,0,0,1,.2.33v.92c0,.13-.13.27-.27.2a4.25,4.25,0,0,0-4,0c-.13.08-.27-.07-.27-.19v-.88a1,1,0,0,1,.14-.59L38,12.65h-2A.22.22,0,0,1,35.85,12.43Z"/><path class="cls-4" d="M22.22,17.81H21.08a.22.22,0,0,1-.21-.2v-6a.22.22,0,0,1,.23-.22h1.06a.23.23,0,0,1,.21.21v.78h0a1.57,1.57,0,0,1,3,0,1.67,1.67,0,0,1,2.9-.45,3.21,3.21,0,0,1,.29,1.89v3.8a.22.22,0,0,1-.22.22H27.22a.22.22,0,0,1-.21-.22V14.4a8.44,8.44,0,0,0,0-1.13.6.6,0,0,0-.67-.52.77.77,0,0,0-.69.49,3.69,3.69,0,0,0-.11,1.16v3.19a.22.22,0,0,1-.22.22H24.15a.22.22,0,0,1-.21-.22V14.4c0-.68.11-1.67-.7-1.67s-.8,1-.8,1.67v3.19A.22.22,0,0,1,22.22,17.81Z"/><path class="cls-4" d="M43.19,11.24c1.7,0,2.62,1.49,2.62,3.4s-1,3.3-2.62,3.3-2.58-1.5-2.58-3.37S41.53,11.24,43.19,11.24Zm0,1.23c-.85,0-.9,1.18-.9,1.91s0,2.31.89,2.31.93-1.27.93-2a5.69,5.69,0,0,0-.17-1.6A.72.72,0,0,0,43.2,12.47Z"/><path class="cls-4" d="M48,17.81H46.87a.22.22,0,0,1-.2-.22v-6a.23.23,0,0,1,.22-.2H48a.22.22,0,0,1,.2.17v.93h0a1.56,1.56,0,0,1,1.56-1.22,1.49,1.49,0,0,1,1.34.71,3.91,3.91,0,0,1,.3,1.88v3.79a.22.22,0,0,1-.22.19H50a.21.21,0,0,1-.2-.19V14.35c0-.66.07-1.63-.72-1.63a.75.75,0,0,0-.66.48,2.78,2.78,0,0,0-.18,1.15v3.24A.24.24,0,0,1,48,17.81Z"/><path class="cls-4" d="M33,14.93a2.33,2.33,0,0,1-.22,1.25.92.92,0,0,1-.79.53c-.44,0-.7-.34-.7-.85,0-1,.88-1.18,1.71-1.18Zm1.15,2.86a.23.23,0,0,1-.27,0,2.82,2.82,0,0,1-.66-.78,2.24,2.24,0,0,1-1.88.85,1.65,1.65,0,0,1-1.72-1.83,2,2,0,0,1,1.22-1.92A7.87,7.87,0,0,1,33,13.73v-.15a1.54,1.54,0,0,0-.14-.85.75.75,0,0,0-.65-.3.87.87,0,0,0-.92.7.25.25,0,0,1-.2.22l-1.11-.13a.21.21,0,0,1-.17-.24,2.34,2.34,0,0,1,2.56-1.8,2.57,2.57,0,0,1,1.73.58c.56.54.5,1.25.5,2v1.83A1.59,1.59,0,0,0,35,16.7c.07.11.09.24,0,.32l-.88.78Z"/><path class="cls-4" d="M18,14.93a2.42,2.42,0,0,1-.21,1.25.92.92,0,0,1-.79.53c-.44,0-.7-.34-.7-.85,0-1,.87-1.18,1.7-1.18Zm1.16,2.86a.23.23,0,0,1-.27,0,2.82,2.82,0,0,1-.66-.78,2.26,2.26,0,0,1-1.89.85,1.65,1.65,0,0,1-1.71-1.83,2,2,0,0,1,1.22-1.92A7.87,7.87,0,0,1,18,13.73v-.15a1.54,1.54,0,0,0-.14-.85.73.73,0,0,0-.64-.3.87.87,0,0,0-.92.7.25.25,0,0,1-.2.22L15,13.22a.2.2,0,0,1-.17-.24,2.33,2.33,0,0,1,2.56-1.8,2.57,2.57,0,0,1,1.73.58,2.57,2.57,0,0,1,.5,2v1.83a1.58,1.58,0,0,0,.43,1.08.23.23,0,0,1,0,.32l-.88.78Z"/><path class="cls-5" d="M27.52,40.19a9.32,9.32,0,1,1-9.31-9.31A9.31,9.31,0,0,1,27.52,40.19Z"/><path class="cls-2" d="M18.73,36.64H16.49v8.28s-.1.16-.29-.11-2.73-4-2.73-4a1.13,1.13,0,0,0-1.05-.26c-.63.16-.86.59-.56,1.11s2.3,5.29,4.9,6.61a6.36,6.36,0,0,0,5.28,0c1.11-.53,2.84-1.81,3-3.52a21.53,21.53,0,0,0,0-3.22H23.84v2.07H23.1v-3H21.78V43H21V39.79H19.52v3.06H18.8Z"/><rect class="cls-2" x="12.55" y="36.64" width="1.87" height="1.15"/><rect class="cls-2" x="20.91" y="36.64" width="1.87" height="1.15"/><rect class="cls-2" x="16.62" y="32.5" width="1.94" height="2.17"/><polygon class="cls-2" points="14.95 35.72 15.64 35.03 14.36 33.72 13.59 34.41 14.95 35.72"/><polygon class="cls-2" points="20.47 35.51 19.89 34.72 21.27 33.61 21.83 34.41 20.47 35.51"/><path class="cls-2" d="M30.5,36.11a4.5,4.5,0,0,1,2.28-.61c2.23,0,2.74,1.25,2.74,3.3v3.59c0,.59,0,1.14,0,1.45H34a10.27,10.27,0,0,1,0-1.11h0a2.25,2.25,0,0,1-2,1.24,2.21,2.21,0,0,1-2.15-2.41c0-2.23,1.59-2.79,3.78-2.79h.35v-.3c0-.81-.35-1.56-1.34-1.56a3.14,3.14,0,0,0-2,.79Zm3.41,3.72h-.16c-1.48,0-2.35.35-2.35,1.54a1.12,1.12,0,0,0,1.1,1.26c1,0,1.41-.88,1.41-2.34Z"/><path class="cls-2" d="M31.93,44a2.25,2.25,0,0,1-2.2-2.46c0-2.52,2-2.84,3.83-2.84h.29v-.25A1.31,1.31,0,0,0,32.57,37a3,3,0,0,0-1.93.78,0,0,0,0,1-.06,0s0,0,0,0l-.1-1.6a.05.05,0,0,1,0,0,4.63,4.63,0,0,1,2.3-.61c2.32,0,2.79,1.34,2.79,3.35v3.59c0,.22,0,.43,0,.63a5.3,5.3,0,0,0,0,.82.06.06,0,0,1,0,0l0,0H34a0,0,0,0,1-.05,0,4.33,4.33,0,0,1,0-.72c0-.09,0-.18,0-.27A2.28,2.28,0,0,1,31.93,44Zm1.63-5.2c-2.58,0-3.73.85-3.73,2.74a2.16,2.16,0,0,0,2.1,2.36,2.21,2.21,0,0,0,2-1.22l0,0h0a0,0,0,0,1,0,0c0,.14,0,.28,0,.41s0,.43,0,.65h1.46a6.52,6.52,0,0,1,0-.77c0-.2,0-.41,0-.63V38.8c0-1.95-.46-3.25-2.69-3.25a4.4,4.4,0,0,0-2.22.59l.09,1.45a3.13,3.13,0,0,1,1.92-.73c.88,0,1.39.58,1.39,1.61v.3a.05.05,0,0,1-.05,0ZM32.5,42.68a1.17,1.17,0,0,1-1.15-1.31c0-1.12.72-1.6,2.4-1.6h.16a.06.06,0,0,1,.05.06v.46C34,41.92,33.49,42.68,32.5,42.68Zm1.25-2.8c-1.61,0-2.3.44-2.3,1.49,0,.74.41,1.21,1.05,1.21.92,0,1.35-.73,1.35-2.29v-.41Z"/><path class="cls-2" d="M37.15,37V35.65h1.51c0,.26,0,.29,0,.85h0c.28-.71.9-1,2-1,1.79,0,2.63,2,2.63,4.23,0,2.68-1,4-2.58,4-1,0-1.61-.16-1.86-.8h0v3.91H37.15Zm3.07,5.28c1,0,1.5-.86,1.5-2.5,0-1.9-.47-2.85-1.47-2.85s-1.37,1.15-1.37,2.7S39.27,42.31,40.22,42.31Z"/><path class="cls-2" d="M38.88,46.93H37.15a.05.05,0,0,1,0,0V35.65s0,0,0,0l0,0h1.51a0,0,0,0,1,.05,0c0,.17,0,.24,0,.43v.27c.31-.63.92-.9,2-.9,1.63,0,2.68,1.68,2.68,4.28s-1,4.09-2.63,4.09c-.92,0-1.53-.12-1.84-.67v3.73A0,0,0,0,1,38.88,46.93Zm-1.67-.1h1.62V43a0,0,0,0,1,.05,0h0A.05.05,0,0,1,39,43c.22.57.69.76,1.81.76,1.6,0,2.53-1.45,2.53-4,0-1.93-.68-4.18-2.58-4.18-1.11,0-1.69.29-2,1a.07.07,0,0,1,0,0h0a.05.05,0,0,1-.05,0v-.42c0-.17,0-.24,0-.38H37.2v.46c0,.25,0,.54,0,.87Zm3-4.46c-.91,0-1.39-.94-1.39-2.71s.48-2.76,1.42-2.76,1.53,1,1.53,2.91C41.78,41.46,41.22,42.37,40.22,42.37Zm0-5.36c-.87,0-1.32.89-1.32,2.65,0,1.19.23,2.6,1.29,2.6s1.45-.87,1.45-2.45C41.67,37.92,41.21,37,40.25,37Z"/><path class="cls-2" d="M51.77,41.64a4.26,4.26,0,0,0,1.87.63c.65,0,1.16-.17,1.16-.79,0-.31-.14-.6-.8-1l-1-.67c-.75-.48-1.27-.82-1.27-1.93a2.41,2.41,0,0,1,2.58-2.37,5.75,5.75,0,0,1,1.88.33L56,37.32A3.88,3.88,0,0,0,54.45,37c-.72,0-1,.29-1,.77s.22.61.74,1l1.24.6a2.29,2.29,0,0,1,1.25,2.08A2.43,2.43,0,0,1,54,43.83a6.54,6.54,0,0,1-2.28-.49Z"/><path class="cls-2" d="M54,43.88a6.85,6.85,0,0,1-2.3-.49.05.05,0,0,1,0,0l.08-1.7s0,0,0,0h0l.23.12a3.56,3.56,0,0,0,1.62.51c.76,0,1.11-.23,1.11-.74,0-.29-.13-.56-.77-1l-1.06-.67a2.08,2.08,0,0,1-1.29-2,2.45,2.45,0,0,1,2.63-2.42,5.74,5.74,0,0,1,1.89.33.05.05,0,0,1,0,0l-.1,1.49s0,0,0,0h0A3.87,3.87,0,0,0,54.45,37c-.66,0-1,.24-1,.72s.21.57.72.92l1.24.59a2.35,2.35,0,0,1,1.27,2.13A2.49,2.49,0,0,1,54,43.88Zm-2.23-.57a6.72,6.72,0,0,0,2.23.47,2.37,2.37,0,0,0,2.64-2.41,2.25,2.25,0,0,0-1.22-2l-1.24-.59c-.54-.37-.77-.55-.77-1s.19-.82,1.08-.82a4,4,0,0,1,1.54.33l.09-1.38a5.72,5.72,0,0,0-1.82-.31,2.35,2.35,0,0,0-2.53,2.32c0,1.1.52,1.43,1.25,1.89l1.05.67c.58.36.82.67.82,1,0,.57-.39.84-1.21.84A3.62,3.62,0,0,1,52,41.8l-.16-.08Z"/><path class="cls-2" d="M44.58,37V35.65h1.51c0,.26,0,.29,0,.85h0c.28-.71.9-1,2-1,1.79,0,2.63,2,2.63,4.23,0,2.68-1,4-2.59,4-1,0-1.6-.16-1.85-.8h0v3.91H44.58Zm3.07,5.28c1,0,1.5-.86,1.5-2.5,0-1.9-.47-2.85-1.47-2.85s-1.37,1.15-1.37,2.7S46.7,42.31,47.65,42.31Z"/><path class="cls-2" d="M46.31,46.93H44.58a0,0,0,0,1,0,0V35.65s0,0,0,0l0,0h1.51a0,0,0,0,1,0,0c0,.17,0,.24,0,.43v.27c.31-.63.92-.9,2-.9,1.63,0,2.68,1.68,2.68,4.28s-1,4.09-2.64,4.09c-.92,0-1.52-.12-1.83-.67v3.73A0,0,0,0,1,46.31,46.93Zm-1.68-.1h1.63V43a0,0,0,0,1,.05,0h0a.05.05,0,0,1,0,0c.22.57.69.76,1.8.76,1.61,0,2.54-1.45,2.54-4,0-1.93-.68-4.18-2.58-4.18-1.11,0-1.7.29-2,1a.07.07,0,0,1,0,0h0a.05.05,0,0,1-.05,0v-.42c0-.17,0-.24,0-.38H44.63V46.83Zm3-4.46c-.91,0-1.39-.94-1.39-2.71s.48-2.76,1.42-2.76,1.52,1,1.52,2.91C49.2,41.46,48.65,42.37,47.65,42.37Zm0-5.36c-.87,0-1.32.89-1.32,2.65,0,1.19.23,2.6,1.29,2.6s1.45-.87,1.45-2.45C49.1,37.92,48.64,37,47.68,37Z"/><path class="cls-6" d="M134.85,52.2c-5.9,4.36-14.46,6.68-21.84,6.68A39.5,39.5,0,0,1,86.34,48.7c-.55-.5-.06-1.18.61-.79A53.64,53.64,0,0,0,113.63,55,53.05,53.05,0,0,0,134,50.82C135,50.4,135.83,51.48,134.85,52.2Z"/><path class="cls-6" d="M137.31,49.4c-.76-1-5-.46-6.9-.23-.58.06-.66-.44-.14-.8,3.38-2.38,8.91-1.69,9.56-.9s-.17,6.36-3.34,9c-.49.4-1,.19-.74-.35C136.47,54.35,138.06,50.36,137.31,49.4Z"/><path class="cls-7" d="M130.55,31.6V29.29a.56.56,0,0,1,.58-.58h10.34a.58.58,0,0,1,.6.59v2a3.42,3.42,0,0,1-.78,1.45l-5.36,7.64a11.5,11.5,0,0,1,5.9,1.27,1.07,1.07,0,0,1,.55.9V45c0,.34-.37.73-.76.53a11.91,11.91,0,0,0-10.93,0c-.36.19-.73-.2-.73-.54V42.66a2.74,2.74,0,0,1,.38-1.58l6.21-8.9h-5.41A.57.57,0,0,1,130.55,31.6Z"/><path class="cls-7" d="M92.83,46H89.69a.58.58,0,0,1-.56-.53V29.33a.59.59,0,0,1,.61-.58h2.93a.59.59,0,0,1,.57.54V31.4h.06a4.14,4.14,0,0,1,4.14-3c2,0,3.2.95,4.08,3a4.64,4.64,0,0,1,8-1.23c1,1.36.79,3.33.79,5.07V45.42a.58.58,0,0,1-.6.58h-3.15a.59.59,0,0,1-.56-.58V36.87a20.34,20.34,0,0,0-.09-3A1.63,1.63,0,0,0,104,32.45a2.1,2.1,0,0,0-1.88,1.32,9.91,9.91,0,0,0-.29,3.1v8.55a.59.59,0,0,1-.61.58H98.12a.59.59,0,0,1-.56-.58V36.87c0-1.8.3-4.45-1.93-4.45S93.44,35,93.44,36.87v8.55A.59.59,0,0,1,92.83,46Z"/><path class="cls-7" d="M151,28.41c4.67,0,7.2,4,7.2,9.1,0,4.93-2.79,8.83-7.2,8.83-4.58,0-7.07-4-7.07-9S146.41,28.41,151,28.41Zm0,3.29c-2.32,0-2.46,3.16-2.46,5.13S148.5,43,151,43s2.56-3.39,2.56-5.47a15,15,0,0,0-.47-4.28A2,2,0,0,0,151,31.7Z"/><path class="cls-7" d="M164.21,46h-3.13a.59.59,0,0,1-.57-.58V29.27a.6.6,0,0,1,.6-.52H164a.6.6,0,0,1,.56.45v2.47h.06c.88-2.21,2.11-3.26,4.28-3.26a4.13,4.13,0,0,1,3.67,1.9c.83,1.29.83,3.46.83,5V45.49a.6.6,0,0,1-.6.51h-3.16a.6.6,0,0,1-.56-.51V36.73c0-1.77.21-4.35-2-4.35a2.06,2.06,0,0,0-1.82,1.29,7.2,7.2,0,0,0-.5,3.06v8.69A.59.59,0,0,1,164.21,46Z"/><path class="cls-7" d="M122.31,38.29a6.25,6.25,0,0,1-.59,3.34,2.55,2.55,0,0,1-2.18,1.43c-1.21,0-1.91-.92-1.91-2.28,0-2.68,2.4-3.17,4.68-3.17ZM125.48,46a.67.67,0,0,1-.75.08,7.71,7.71,0,0,1-1.8-2.1,6.24,6.24,0,0,1-5.19,2.29c-2.64,0-4.7-1.64-4.7-4.91a5.34,5.34,0,0,1,3.35-5.14,22,22,0,0,1,5.92-1.09v-.4a4,4,0,0,0-.39-2.28,2.1,2.1,0,0,0-1.76-.82,2.39,2.39,0,0,0-2.53,1.89.66.66,0,0,1-.55.57l-3-.33a.54.54,0,0,1-.46-.65c.7-3.7,4-4.82,7-4.82a7.1,7.1,0,0,1,4.73,1.57c1.54,1.43,1.39,3.33,1.39,5.41v4.9a4.31,4.31,0,0,0,1.19,2.92.58.58,0,0,1,0,.83c-.64.54-1.78,1.53-2.41,2.09Z"/><path class="cls-7" d="M81.07,38.29a6.25,6.25,0,0,1-.58,3.34,2.55,2.55,0,0,1-2.18,1.43c-1.21,0-1.91-.92-1.91-2.28,0-2.68,2.4-3.17,4.67-3.17ZM84.25,46a.67.67,0,0,1-.75.08,7.71,7.71,0,0,1-1.8-2.1,6.24,6.24,0,0,1-5.19,2.29c-2.64,0-4.7-1.64-4.7-4.91a5.34,5.34,0,0,1,3.35-5.14,22,22,0,0,1,5.91-1.09v-.4a4,4,0,0,0-.38-2.28,2.1,2.1,0,0,0-1.76-.82,2.39,2.39,0,0,0-2.53,1.89.66.66,0,0,1-.55.57l-3-.33a.55.55,0,0,1-.47-.65c.7-3.7,4-4.82,7-4.82a7.14,7.14,0,0,1,4.74,1.57c1.52,1.43,1.38,3.33,1.38,5.41v4.9a4.35,4.35,0,0,0,1.18,2.92.57.57,0,0,1,0,.83c-.64.54-1.78,1.53-2.41,2.09Z"/><path class="cls-2" d="M75.44,11.69h1.4l3.73,9.54h-1.4l-1-2.87h-4L73,21.23H71.71Zm-1,5.6h3.24l-1.59-4.45h0Z"/><path class="cls-2" d="M83.43,21.23H82.22l-2.57-6.91h1.27l1.94,5.76h0l1.89-5.76H86Z"/><path class="cls-2" d="M92.45,21.2a1.51,1.51,0,0,1-.81.19c-.59,0-1-.32-1-1.07a3.06,3.06,0,0,1-2.44,1.07C87,21.39,86,20.83,86,19.45c0-1.56,1.16-1.9,2.34-2.12s2.32-.16,2.32-1-.81-1.15-1.54-1.15c-1,0-1.67.3-1.72,1.31H86.23c.06-1.71,1.38-2.31,2.92-2.31,1.24,0,2.59.28,2.59,1.9v3.55c0,.54,0,.78.36.78a1,1,0,0,0,.35-.07Zm-1.84-3.54a5.8,5.8,0,0,1-2.06.47c-.75.13-1.39.4-1.39,1.24s.64,1,1.34,1c1.49,0,2.11-.94,2.11-1.57Z"/><path class="cls-2" d="M94.38,13.08H93.24V11.69h1.14Zm-1.14,1.24h1.14v6.91H93.24Z"/><path class="cls-2" d="M95.94,11.69h1.14v9.54H95.94Z"/><path class="cls-2" d="M104.63,21.2a1.58,1.58,0,0,1-.82.19c-.59,0-1-.32-1-1.07a3.05,3.05,0,0,1-2.43,1.07c-1.26,0-2.29-.56-2.29-1.94,0-1.56,1.16-1.9,2.34-2.12s2.32-.16,2.32-1-.81-1.15-1.53-1.15c-1,0-1.67.3-1.73,1.31H98.4c.06-1.71,1.39-2.31,2.93-2.31,1.24,0,2.59.28,2.59,1.9v3.55c0,.54,0,.78.36.78a1.12,1.12,0,0,0,.35-.07Zm-1.85-3.54a5.75,5.75,0,0,1-2.06.47c-.74.13-1.39.4-1.39,1.24s.65,1,1.34,1c1.5,0,2.11-.94,2.11-1.57Z"/><path class="cls-2" d="M105.39,11.69h1.13v3.57h0a2.31,2.31,0,0,1,2.2-1.1c2.13,0,3.19,1.68,3.19,3.63s-1,3.6-3.16,3.6a2.65,2.65,0,0,1-2.23-1.08h0v.92h-1.13Zm3.2,3.47c-1.52,0-2.11,1.31-2.11,2.61s.62,2.62,2.18,2.62,2.07-1.33,2.07-2.68S110.06,15.16,108.59,15.16Z"/><path class="cls-2" d="M112.8,11.69h1.14v9.54H112.8Z"/><path class="cls-2" d="M121.26,19a2.78,2.78,0,0,1-3,2.35c-2.21,0-3.25-1.52-3.31-3.64a3.32,3.32,0,0,1,3.24-3.59c2.45,0,3.2,2.29,3.13,4H116.2a2,2,0,0,0,2.15,2.27A1.67,1.67,0,0,0,120.14,19Zm-1.09-1.93a2,2,0,0,0-2-1.95,2,2,0,0,0-2,1.95Z"/><path class="cls-2" d="M132.38,21.2a1.51,1.51,0,0,1-.81.19c-.59,0-1-.32-1-1.07a3.05,3.05,0,0,1-2.43,1.07c-1.25,0-2.28-.56-2.28-1.94,0-1.56,1.16-1.9,2.33-2.12s2.33-.16,2.33-1-.82-1.15-1.54-1.15c-1,0-1.67.3-1.72,1.31h-1.14c.07-1.71,1.39-2.31,2.93-2.31,1.24,0,2.59.28,2.59,1.9v3.55c0,.54,0,.78.36.78a1.07,1.07,0,0,0,.35-.07Zm-1.84-3.54a5.85,5.85,0,0,1-2.06.47c-.75.13-1.39.4-1.39,1.24s.64,1,1.33,1c1.5,0,2.12-.94,2.12-1.57Z"/><path class="cls-2" d="M135,14.32h1.38v1H135v4.29c0,.52.15.62.86.62h.52v1h-.87c-1.18,0-1.64-.24-1.64-1.51v-4.4H132.7v-1h1.18V12.25H135Z"/></g></g></svg>