<svg xmlns="http://www.w3.org/2000/svg" xmlns:xlink="http://www.w3.org/1999/xlink" viewBox="0 0 915.03 914.96"><defs><style>.cls-1{fill:none;}.cls-2{clip-path:url(#clip-path);}.cls-3{fill:url(#linear-gradient);}.cls-4{fill:#fefefe;}.cls-5{fill:#d4313e;}</style><clipPath id="clip-path" transform="translate(0 0)"><path class="cls-1" d="M425.19,745.35q-5.64,13-11.22,26c-1.29,3-.12,4.61,3.15,4.63,3.44,0,6.89,0,10.34,0h0c3.6,0,7.2,0,10.8,0s4.48-1.92,3.12-5.05q-5.58-12.78-11.2-25.52c-.5-1.13-1.11-2.22-2.5-2.3h-.14c-1.4,0-1.9,1.2-2.35,2.24m301.45-26c10.11-.1,8-.2,8.09,12.19.14,24.27,0,48.56,0,72.84,0,5.68-.22,5.87-5.75,5.93-10.5.09-10.5.09-10.5-10.4V764.82h-.25c0-14.09,0-28.18,0-42.27,0-2.08.56-3.14,2.68-3.18.3,0,.59,0,.9,0h4.84M243.38,751.69c-.14-9.15.07-18.3-.1-27.44-.07-3.72,1.31-5,5-5,14.16.29,11.91-1.67,12,11.8.11,11.39,0,22.79,0,34.19,0,13.34-.13,26.69.06,40,.07,4.24-1.32,5.9-5.68,5.81-13-.27-11.26,1.14-11.36-11.28-.06-7.34-.1-14.69,0-22,.06-3.61-1.47-5.27-5.05-5.26q-17.08.06-34.18,0c-3.92,0-5.19,1.93-5.13,5.63.13,9.3-.07,18.6.1,27.89.06,3.72-1.37,5.08-5,5-1.76,0-3.26,0-4.55,0-9.14,0-7.37,0-7.42-11.78-.13-24.44,0-48.89,0-73.33,0-6.59,0-6.65,6.4-6.6h3.26c8.57-.07,7.22-.14,7.31,10.49.07,7.2.14,14.4,0,21.59-.09,3.92,1.19,5.8,5.4,5.75,11.24-.16,22.49-.13,33.73,0h.12c3.84,0,5.16-1.73,5.12-5.45m56.26,49.7a33.25,33.25,0,0,1-9.47-22.74c-.35-18.13-.06-36.28-.19-54.41,0-3.72,1.37-5,5-5,1.83,0,3.38,0,4.7,0,9,0,7.16,0,7.28,11.76.14,14.24.2,28.48,0,42.71-.22,18,16.68,26.86,32.22,20.11,10.09-4.38,11.79-13.73,11.91-23.34.22-15.58.16-31.18-.05-46.76,0-3.36.88-4.69,4.24-4.5,3,.17,6,.08,9,.05,2.7,0,3.5,1.17,3.44,3.91-.18,9.29-.07,18.58-.07,27.87h-.2c0,8.7.11,17.4,0,26.09-.23,16-9.33,29.49-24.95,32.72a83.25,83.25,0,0,1-16.68,2c-9.4,0-18.5-2.52-26.22-10.56m326.29,3.77c.17-13.49.07-27,.07-40.5,0-13.2.11-26.4-.08-39.61-.07-4.16,1.07-5.86,5.54-5.81,18.6.2,37.21.15,55.81,0,3.81,0,5.4,1.16,5.33,5.15-.19,10.36.65,10.27-7,10.17-.92,0-2,0-3.13,0-11.25.06-22.51.13-33.75-.06-4.33-.08-6.05,1.57-5.75,5.82.19,2.84,0,5.7,0,8.55,0,6,.45,6.48,6.32,6.5,7.81,0,15.61.11,23.41,0,3.61-.07,5.46.92,4.62,4.92a18.7,18.7,0,0,0-.08,4.49c.18,5.76.19,5.78-5.41,5.8-7.8,0-15.6.14-23.4,0-4.13-.1-5.67,1.62-5.5,5.63.19,4.34,0,8.7,0,13.05,0,5.73.85,6.58,6.49,6.59q12.21,0,24.42,0h13.84c6.49,0,6.56.09,6.58,6.5a21.09,21.09,0,0,0,0,2.25c.49,4.2-1.12,5.85-5.54,5.81-19.21-.18-38.41-.15-57.61,0h-.12c-3.79,0-5.19-1.28-5.14-5.19M513.21,778c6-18.21,12.06-36.42,18-54.66.87-2.69,2.16-3.9,5.05-4,9.92-.43,10.12-.59,13.33,8.72,5.66,16.44,11,33,16.55,49.45.45,1.34.34,3.36,2.41,3.24,1.82-.12,2-1.9,2.49-3.34,5.76-18,11.58-36,17.3-54,.9-2.85,2.46-4.24,5.53-4.06s6,.1,9,0c3.36-.1,4.16,1,3,4.35-6.79,19.23-13.39,38.51-20.06,57.78-2.76,7.93-5.63,15.82-8.2,23.82-1.13,3.53-3,5.1-6.81,5-11.35-.34-9.1,1.27-12.67-9-5.49-15.86-11.42-31.57-16.24-47.64-.35-1.19-.86-2.4-2.31-2.41-2,0-2.17,1.78-2.64,3.14-5.8,16.72-11.72,33.4-17.24,50.21-1.42,4.32-3.47,5.92-8,5.77-8.63-.3-8.57-.08-11.35-8q-13.44-38.4-26.95-76.79a22.49,22.49,0,0,0-.83-2.56c-1.49-3.05,0-3.7,2.7-3.59,1.8.07,3.61,0,5.41,0a23.89,23.89,0,0,0,3.59,0c4.36-.7,6.1,1.7,7.26,5.45,5.51,17.74,11.15,35.44,16.75,53.16.41,1.29.78,2.76,2.47,2.77s2.06-1.44,2.5-2.75M381.54,810.32c-2.1-.16-.68-2.18-.21-3.24,4.88-11.11,9.84-22.19,14.75-33.29,7.33-16.57,14.71-33.14,21.85-49.78,1.45-3.38,3.4-4.44,7-4.84,7.79-.88,11.79,1.67,14.95,9.34,10.73,26,22.43,51.66,33.91,77.38,1.6,3.59.71,4.64-2.89,4.42-1.49-.08-3,0-4.49,0-1.28,0-2.36,0-3.28,0-5.37.09-5.4.18-9-8.38-4.88-11.69-3.59-11.56-12.34-11.43-1.32,0-2.87,0-4.7,0-4.23,0-8.45,0-12.69,0-4.46,0-8.92,0-13.39,0-3.61-.05-5.95,1.29-7.27,4.7-1.52,3.92-3.26,7.74-4.94,11.58-.6,1.37-1.08,3.35-2.59,3.45-3,.2-6,.35-9,.35-1.92,0-3.84-.07-5.74-.22M576.42,651.48c-23.6-11.43-44.88-26.56-66.55-41.08-.93-.63-2.38-1.22-1.76-2.71.38-1,1.32-.9,2.19-.86a4.51,4.51,0,0,0,.63,0c2.7-.05,5.4,0,8.1,0a1,1,0,0,0,0,.17c28.91.87,57.82,1.54,86.71,2.68,15.72.61,31.42,1.62,47.16,1.67,5.71,0,6.12.66,3.07,5.41-9.11,14.19-20,26.58-35.48,34.2a51.26,51.26,0,0,1-22.74,5.67,48.45,48.45,0,0,1-21.32-5.15M269.65,611.14c27.55-.87,55.12-1.56,82.67-2.66,17.36-.69,34.72-1.59,52.11-1.65,1.27,0,3-.54,3.56,1.07.44,1.35-1.08,2-2.05,2.62-20,13.85-40.17,27.23-61.68,38.7-24.94,13.31-46.28,6.7-64.57-9.28a102.47,102.47,0,0,1-20.09-24.1c-2.18-3.6-1.75-4.35,2.41-4.48,2.54-.08,5.09,0,7.65,0,0-.07,0-.13,0-.2m31.37-17a89.27,89.27,0,0,1-87.77-73.9c-2.26-12.65-1.38-25,1.57-37.44.84-3.54,2.2-3.91,5.3-2.22,36.1,19.6,72.06,39.44,107.6,60.06,26.07,15.11,52,30.41,77.2,47a29.16,29.16,0,0,1,2.61,1.77c1.2,1,3.66,1.47,3.11,3.32-.49,1.67-2.1,1.53-3.58,1.4-.41,0-.81-.07-1.18-.07-9.3.09-18.6.06-27.91.07H351.42v0h-29.8q-10.31,0-20.6,0m204.48-1.3c-.49-1.85,1.72-2.58,3-3.44,24.35-15.93,49.22-31,74.35-45.64,33-19.25,66.42-37.83,99.92-56.23,4.47-2.44,9.05-4.71,13.41-7.35,3.15-1.9,4.43-1,5.29,2.3a85.06,85.06,0,0,1,1.38,37.9c-6.58,34-26.42,57-59,68.85-11.92,4.34-24.41,4.5-36.81,4.75-15.75.32-31.5.08-47.25.08v0c-16.64,0-33.29,0-49.93,0a11,11,0,0,0-1.1.07c-.37,0-.75.07-1.12.07-1,0-1.83-.24-2.13-1.35m-87.19-19.17c-9.75-5-19.53-9.89-29.18-15-29.63-15.86-58.87-32.36-86.42-51.7-12.53-8.81-24.56-18.19-35.26-29.23-13-13.46-19.88-29.31-19.9-51.52-.21-15.45,7.77-31.46,17.49-46.8a138.24,138.24,0,0,1,18.21-22.81c3.73-3.81,4-3.76,7.45.57,20.19,25.73,39,52.46,56.86,79.86a1090.25,1090.25,0,0,1,68.1,120c2.09,4.31,4.21,8.62,6.1,13,.63,1.5,2.77,3.19,1.07,4.75a1.58,1.58,0,0,1-1.1.44c-1.12,0-2.37-1-3.42-1.55m75.43,1c-1.82-1.59.11-3.33.8-4.82a1072.64,1072.64,0,0,1,61.3-112.5,1152.05,1152.05,0,0,1,68.53-98.56c5.08-6.52,5.19-6.69,10.68-.56,14,15.67,26,32.66,31.29,53.41,1.55,6,3.27,12.16,2.68,18.61-.83,21.75-10.24,39.31-26.32,53.63-28.78,25.61-61.83,44.8-95.2,63.56q-24.3,13.66-49.26,26.11c-1,.52-2.19,1.58-3.32,1.58a1.77,1.77,0,0,1-1.18-.46m-20.68-12.85c-2.11-.53-1.59-3.69-1.72-5.62-1-13.43-2.38-26.83-3.15-40.28-1.37-23.94-3-47.87-2.5-71.84.66-33.71,2.73-67.36,9.23-100.53C478.35,326,483,308.81,491,292.69c1.45-2.9,3.2-5.06,6.86-4.62,19,2.27,37.4,6.43,51.55,20.6s22.44,31,20.73,49.95c.53,22.33-6,41.28-13.61,59.95-12.63,31.24-29.35,60.37-46.79,89.09-10.27,16.92-20.87,33.65-32.14,49.92-1.1,1.59-1.95,4.32-3.95,4.32a2.28,2.28,0,0,1-.61-.08m-33.15-2.28c-9.61-14.68-19.49-29.19-28.73-44.11-15-24.22-29.2-48.92-41.62-74.6-9.56-19.76-17.95-40-22.25-61.56-5-25.27-1.08-48.75,17-68.25a65.28,65.28,0,0,1,33.49-19.18q8.31-1.95,16.71-3.48c7-1.27,8.65-.25,11.63,6.1,9.52,20.3,14.32,41.93,17.71,63.91,4.77,31,6.62,62.23,6.44,95.19.27,23.3-1.42,48.12-2.79,72.95-.57,10.15-1.78,20.27-2.71,30.41a8.16,8.16,0,0,1-.28,1.77c-.4,1.22-.15,3.07-1.76,3.34l-.32,0c-1.32,0-1.88-1.52-2.54-2.52M191.9,3.42c-27.06,3.16-53.55,8.35-78.85,18.65C80.61,35.28,54.22,55.93,35.63,86,22.3,107.5,14.12,131,8.85,155.66A407.4,407.4,0,0,0,.09,241.3Q.21,452.16,0,663c0,26.41,1,52.67,5.31,78.79C8.9,763.33,14,784.33,22.48,804.46c20,47.52,55.47,78,103.94,94a301.9,301.9,0,0,0,47.1,11.21c15.11,2.42,30.28,4.74,45.48,4.83,79.52.38,159,.17,238.54.17v.13c69,0,138-.11,207,.06,26,.07,51.75-1,77.43-5.29,22.41-3.74,44.24-9.17,65.06-18.29,40.08-17.56,68.51-46.65,85.51-86.92,8.54-20.26,13.89-41.38,17.19-63.11A437.93,437.93,0,0,0,915,675.07q-.19-215.58,0-431.16c0-33.28-3.21-66.06-11.1-98.39a213.34,213.34,0,0,0-17.4-47.16c-18-35-45.52-59.82-81.71-75.11C783,14,760.21,8.61,736.83,5.21,717.52,2.39,698.1.28,678.67.24Q536.32-.1,394,0q-55.44,0-110.9,0h-8.74c-27.51,0-55,.23-82.42,3.42"/></clipPath><linearGradient id="linear-gradient" x1="-42.73" y1="957.45" x2="-41.25" y2="957.45" gradientTransform="matrix(0, -616.13, -616.13, 0, 590372.77, -25415.07)" gradientUnits="userSpaceOnUse"><stop offset="0" stop-color="#d4313e"/><stop offset="0.44" stop-color="#d4313e"/><stop offset="0.57" stop-color="#e2455c"/><stop offset="1" stop-color="#e2455c"/></linearGradient></defs><title>Asset 5mdpi</title><g id="Layer_2" data-name="Layer 2"><g id="Layer_1-2" data-name="Layer 1"><g class="cls-2"><rect class="cls-3" width="915.03" height="914.96"/></g><path class="cls-4" d="M685.9,98.57c-4.57,5.87-9.07,11.79-13.72,17.6-34.85,43.47-79.09,73.35-132,90.18-38.85,12.35-78.62,15.36-119.08,10-42.7-5.65-81.68-20.92-117.38-44.76A242.92,242.92,0,0,1,256.54,131c-8.21-9.25-16.52-18.47-23.43-28.8-.87-1.29-1.41-3-3.16-3.6-3.41-5.75-6.89-11.45-10.2-17.25-3.53-6.19-2.07-12.25,3.56-15.46,5.11-2.91,10.93-1.06,14.5,4.65,3.3,5.29,6.25,10.82,10.22,15.68,6.52,11,14.84,20.66,23.49,30,33.71,36.28,74.47,61,122.39,73.57a249,249,0,0,0,93.19,6.35c62.26-7.32,114.39-34.54,157.28-79.93A234.92,234.92,0,0,0,666.1,89.23c.66-1,1.76-1.72,1.57-3.11,4-4.67,7-10,10.14-15.2,1.9-3.21,4.4-5.71,8.31-6.23a10,10,0,0,1,10.11,4.45,9.77,9.77,0,0,1,.57,11c-3.54,6.19-7.25,12.28-10.9,18.41" transform="translate(0 0)"/><path class="cls-5" d="M685.9,98.57c3.65-6.13,7.36-12.22,10.9-18.41a9.77,9.77,0,0,0-.57-11,10,10,0,0,0-10.11-4.45c-3.91.52-6.41,3-8.31,6.23-3.11,5.25-6.17,10.53-10.14,15.2-2.67-1.48-3.63-4.28-4.13-6.83-3.18-16.19,5.65-29.88,21.16-32.86A26.45,26.45,0,0,1,716,72.35c0,14.8-10.7,25-24.41,27.22-2,.33-3.78-.79-5.71-1" transform="translate(0 0)"/><path class="cls-5" d="M248,86.18c-4-4.86-6.92-10.39-10.22-15.68-3.57-5.71-9.39-7.56-14.5-4.65-5.63,3.21-7.09,9.27-3.56,15.46,3.31,5.8,6.79,11.5,10.2,17.25-15.68,2-27.52-8.44-30.15-22.91C197.64,63.78,209,48,221,46.53c15.21-1.81,25.4,4.19,30.88,18.18,2.56,6.54.52,18-3.83,21.47" transform="translate(0 0)"/></g></g></svg>